Open range    

Rated: R [See Full Rating] for violence



Genre: Dramas

Theatrical Release:Aug 15, 2003 Wide

Box Office: $58,260,046

Synopsis: Academy-Award® winning director Kevin Costner ("Dances with Wolves") helms this traditional Western tale of a way of life that is quickly disappearing. Boss Spearman (ROBERT DUVALL), Charley... Academy-Award® winning director Kevin Costner ("Dances with Wolves") helms this traditional Western tale of a way of life that is quickly disappearing. Boss Spearman (ROBERT DUVALL), Charley Waite (KEVIN COSTNER), Mose Harrison (ABRAHAM BENRUBI) and "Button" (DIEGO LUNA) freegraze their cattle across the vast prairies of the West, sharing a friendship forged by a steadfast code of honor and living a life unencumbered by civilization. When their wayward herd forces them near the small town of Harmonville, the cowboys encounter a corrupt Sheriff (JAMES RUSSO) and kingpin rancher (MICHAEL GAMBON) who govern the territory through fear, tyranny and violence. Boss and Charley find themselves inextricably drawn towards the inevitable showdown as they are forced to defend the freedom and values of a lifestyle that is all too quickly vanishing. Amidst this turmoil, life suddenly takes an unexpected turn for loner Charley when he meets the beautiful and warm-spirited Sue Barlow (ANNETTE BENING), a woman who embraces both his heart and his soul. As these courageous men prepare for the decisive battle that looms, they are also forced to confront and conquer their own internal demons. -- © Touchstone Pictures 


Starring:  Robert Duvall, Kevin Costner, Annette Bening, Michael Gambon, Abraham Benrubi, Diego Luna, Michael Jeter, James Russo

Director: Kevin Costner

Director: Kevin Costner
Screenwriter: Craig Storper
Producer: David Valdes, Kevin Costner, Jake Eberts
Composer: Michael Kamen
Studio: Buena Vista Pictures 




Complete name                    Open Range (2003 Kevin Costner)  DVDRip XviD.avi
Format                           : AVI
Format/Info                      : Audio Video Interleave
File size                        : 861 MiB
Duration                         : 2h 12mn
Overall bit rate                 : 905 Kbps
Writing application              : VirtualDubMod 1.5.4.1 (build 2178/release)
Writing library                  : VirtualDubMod build 2178/release

Video
ID                               : 0
Format                           : MPEG-4 Visual
Format profile                   : Advanced Simple@L5
Format settings, BVOP            : Yes
Format settings, QPel            : No
Format settings, GMC             : No warppoints
Format settings, Matrix          : Custom
Codec ID                         : XVID
Codec ID/Hint                    : XviD
Duration                         : 2h 12mn
Bit rate                         : 769 Kbps
Width                            : 640 pixels
Height                           : 272 pixels
Display aspect ratio             : 2.35:1
Frame rate                       : 25.000 fps
Resolution                       : 8 bits
Colorimetry                      : 4:2:0
Scan type                        : Progressive
Bits/(Pixel*Frame)               : 0.177
Stream size                      : 732 MiB (85%)
Writing library                  : XviD 1.2.1 (UTC 2008-12-04)

Audio
ID                               : 1
Format                           : MPEG Audio
Format version                   : Version 1
Format profile                   : Layer 3
Format_Settings_Mode             : Joint stereo
Format_Settings_ModeExtension    : MS Stereo
Codec ID                         : 55
Codec ID/Hint                    : MP3
Duration                         : 2h 12mn
Bit rate mode                    : Constant
Bit rate                         : 128 Kbps
Channel(s)                       : 2 channels
Sampling rate                    : 48.0 KHz
Stream size                      : 122 MiB (14%)
Alignment                        : Aligned on interleaves
Interleave, duration             : 80 ms (2.00 video frames)
Interleave, preload duration     : 504 ms
Writing library                  : LAME3.98r
Encoding settings                : -m j -V 4 -q 2 -lowpass 17 -b 128
